<svg width="24" height="24" viewBox="0 0 24 24" fill="none" xmlns="http://www.w3.org/2000/svg">
<mask id="mask0_56_678" style="mask-type:alpha" maskUnits="userSpaceOnUse" x="0" y="0" width="24" height="24">
<rect width="24" height="24" fill="#D9D9D9"/>
</mask>
<g mask="url(#mask0_56_678)">
<path d="M8 16H20V13H17.45C17.1 13.6167 16.6167 14.1042 16 14.4625C15.3833 14.8208 14.7167 15 14 15C13.3 15 12.6417 14.8208 12.025 14.4625C11.4083 14.1042 10.9167 13.6167 10.55 13H8V16ZM14 13C14.4 13 14.7625 12.8917 15.0875 12.675C15.4125 12.4583 15.6583 12.1667 15.825 11.8C15.875 11.5667 15.9917 11.375 16.175 11.225C16.3583 11.075 16.5667 11 16.8 11H20V4H8V11H11.2C11.4333 11 11.6417 11.0708 11.825 11.2125C12.0083 11.3542 12.125 11.5417 12.175 11.775C12.2583 12.175 12.475 12.4792 12.825 12.6875C13.175 12.8958 13.5667 13 14 13ZM8 18C7.45 18 6.97917 17.8042 6.5875 17.4125C6.19583 17.0208 6 16.55 6 16V4C6 3.45 6.19583 2.97917 6.5875 2.5875C6.97917 2.19583 7.45 2 8 2H20C20.55 2 21.0208 2.19583 21.4125 2.5875C21.8042 2.97917 22 3.45 22 4V16C22 16.55 21.8042 17.0208 21.4125 17.4125C21.0208 17.8042 20.55 18 20 18H8ZM4 22C3.45 22 2.97917 21.8042 2.5875 21.4125C2.19583 21.0208 2 20.55 2 20V7C2 6.71667 2.09583 6.47917 2.2875 6.2875C2.47917 6.09583 2.71667 6 3 6C3.28333 6 3.52083 6.09583 3.7125 6.2875C3.90417 6.47917 4 6.71667 4 7V20H17C17.2833 20 17.5208 20.0958 17.7125 20.2875C17.9042 20.4792 18 20.7167 18 21C18 21.2833 17.9042 21.5208 17.7125 21.7125C17.5208 21.9042 17.2833 22 17 22H4Z" fill="#292929"/>
</g>
</svg>
