<svg width="9" height="10" viewBox="0 0 9 10" fill="none" xmlns="http://www.w3.org/2000/svg">
<path d="M7.05642 2.67591L0.8346 8.89131C0.742289 8.98362 0.626267 9.02871 0.486533 9.02657C0.346789 9.02443 0.230767 8.97721 0.138467 8.88491C0.0461555 8.79259 0 8.67764 0 8.54004C0 8.40244 0.0461555 8.28748 0.138467 8.19517L6.35387 1.97336H0.889734C0.748067 1.97336 0.629317 1.92542 0.533483 1.82956C0.437661 1.73368 0.38975 1.61488 0.38975 1.47316C0.38975 1.33142 0.437661 1.2127 0.533483 1.11697C0.629317 1.02125 0.748067 0.973389 0.889734 0.973389H7.45383C7.62456 0.973389 7.76766 1.03113 7.88315 1.14662C7.99864 1.26211 8.05638 1.40522 8.05638 1.57594V8.14004C8.05638 8.28171 8.00845 8.40045 7.91258 8.49627C7.81671 8.59211 7.6979 8.64002 7.55617 8.64002C7.41444 8.64002 7.29572 8.59211 7.2 8.49627C7.10428 8.40045 7.05642 8.28171 7.05642 8.14004V2.67591Z" fill="#448DEF"/>
</svg>
