<svg width="42" height="42" viewBox="0 0 42 42" fill="none" xmlns="http://www.w3.org/2000/svg">
<mask id="mask0_63_748" style="mask-type:alpha" maskUnits="userSpaceOnUse" x="0" y="0" width="42" height="42">
<rect width="42" height="42" fill="#D9D9D9"/>
</mask>
<g mask="url(#mask0_63_748)">
<path d="M33.4688 27.2562C33.6438 27.0812 33.7312 26.8771 33.7312 26.6438C33.7312 26.4104 33.6438 26.2063 33.4688 26.0312C33.2937 25.8562 33.0896 25.7688 32.8562 25.7688C32.6229 25.7688 32.4188 25.8562 32.2438 26.0312L29.4875 28.7438C29.3125 28.9188 29.225 29.1302 29.225 29.3781C29.225 29.626 29.3125 29.8375 29.4875 30.0125C29.6625 30.1875 29.874 30.275 30.1219 30.275C30.3698 30.275 30.5812 30.1875 30.7562 30.0125L33.4688 27.2562ZM29.75 38.5C27.3292 38.5 25.2656 37.6469 23.5594 35.9406C21.8531 34.2344 21 32.1708 21 29.75C21 27.3292 21.8531 25.2656 23.5594 23.5594C25.2656 21.8531 27.3292 21 29.75 21C32.1708 21 34.2344 21.8531 35.9406 23.5594C37.6469 25.2656 38.5 27.3292 38.5 29.75C38.5 32.1708 37.6469 34.2344 35.9406 35.9406C34.2344 37.6469 32.1708 38.5 29.75 38.5ZM3.5 19.25V10.5C3.5 9.5375 3.84271 8.71354 4.52813 8.02813C5.21354 7.34271 6.0375 7 7 7H35C35.9625 7 36.7865 7.34271 37.4719 8.02813C38.1573 8.71354 38.5 9.5375 38.5 10.5V21.175C37.3333 19.9792 35.999 19.0677 34.4969 18.4406C32.9948 17.8135 31.4125 17.5 29.75 17.5C28.6417 17.5 27.5844 17.6385 26.5781 17.9156C25.5719 18.1927 24.6167 18.5792 23.7125 19.075L20.825 13.2125C20.6792 12.9208 20.4604 12.7021 20.1688 12.5562C19.8771 12.4104 19.5708 12.3375 19.25 12.3375C18.9292 12.3375 18.6229 12.4104 18.3313 12.5562C18.0396 12.7021 17.8208 12.9208 17.675 13.2125L12.25 24.1063L10.2812 20.2125C10.1354 19.9208 9.92396 19.6875 9.64688 19.5125C9.36979 19.3375 9.07083 19.25 8.75 19.25H3.5ZM7 35C6.0375 35 5.21354 34.6573 4.52813 33.9719C3.84271 33.2865 3.5 32.4625 3.5 31.5V22.75H7.65625L10.675 28.7875C10.8208 29.1083 11.0323 29.349 11.3094 29.5094C11.5865 29.6698 11.9 29.75 12.25 29.75C12.5708 29.75 12.8698 29.6698 13.1469 29.5094C13.424 29.349 13.6354 29.1083 13.7812 28.7875L19.25 17.9375L20.9125 21.2625C19.8625 22.3708 19.0313 23.6469 18.4188 25.0906C17.8063 26.5344 17.5 28.0875 17.5 29.75C17.5 30.6542 17.5948 31.551 17.7844 32.4406C17.974 33.3302 18.2729 34.1833 18.6813 35H7Z" fill="#1C1B1F"/>
</g>
</svg>
