<svg width="32" height="32" viewBox="0 0 32 32" fill="none" xmlns="http://www.w3.org/2000/svg">
<path d="M16 32C24.8366 32 32 24.8366 32 16C32 7.16344 24.8366 0 16 0C7.16345 0 0 7.16344 0 16C0 24.8366 7.16345 32 16 32Z" fill="#FF262B"/>
<path d="M17.0556 15.9819C17.9663 16.1609 18.8208 16.5041 19.5893 16.9808C20.0023 17.2365 20.3904 17.5303 20.7487 17.8589C21.3804 18.4354 21.9211 19.1173 22.3455 19.8777C22.5831 20.3027 22.7839 20.7524 22.9447 21.2218C23.2321 22.064 23.4594 22.9708 23.4594 23.9151V27.4479H19.4913V23.9151C19.4913 23.6869 19.4729 23.4631 19.4378 23.245C19.1832 21.6671 17.8782 19.9964 16.4014 19.6028" fill="white"/>
<path d="M24.433 11.8592C24.433 12.4334 24.3708 12.9931 24.2528 13.5317C24.184 13.8483 24.0953 14.1579 23.9892 14.4589C23.8284 14.9119 23.6276 15.346 23.39 15.7563C22.9656 16.4903 22.4249 17.1485 21.7932 17.7049C21.3629 18.0849 20.8904 18.4183 20.3832 18.6965C19.272 19.3065 17.9956 19.6535 16.6387 19.6535C16.597 19.6535 16.5548 19.6529 16.5131 19.6524V19.6557C14.6376 19.7146 13.0966 21.0998 12.7951 22.9038C12.7599 23.1144 12.7415 23.3303 12.7415 23.5506V27.4478H8.77344V23.5506C8.77344 22.6391 9.00077 21.7639 9.28819 20.9509C9.44894 20.4979 9.64976 20.0638 9.88738 19.6535C10.3117 18.9195 10.8525 18.2613 11.4841 17.7049C11.8425 17.3877 12.2306 17.1041 12.6435 16.8573C13.778 16.178 15.0998 15.7796 16.5131 15.7574C16.5548 15.7569 16.597 15.7563 16.6387 15.7563C18.4151 15.7563 19.9139 14.5677 20.3832 12.9422C20.4243 12.7999 20.4573 12.6543 20.4823 12.506C20.5174 12.2954 20.5358 12.0795 20.5358 11.8592C20.5358 11.4835 20.4828 11.1198 20.3832 10.7761C19.9139 9.15062 18.4151 7.96198 16.6387 7.96198H8.77344V4.0659C8.81512 4.06536 16.597 4.06482 16.6387 4.06482C17.9956 4.06482 19.272 4.41177 20.3832 5.02179C21.6346 5.70812 22.6766 6.72788 23.39 7.96198C23.7386 8.56442 24.0086 9.21773 24.1867 9.9084C24.2105 10.0004 24.2327 10.093 24.2528 10.1866C24.3708 10.7252 24.433 11.2849 24.433 11.8592Z" fill="white"/>
<path d="M13.1303 12.1998L12.8521 11.8603L11.4785 10.0664H8.77344L10.5672 12.2117L8.77344 14.357H11.4785L12.8521 12.5632L13.1303 12.1998Z" fill="white"/>
</svg>
