<svg width="24" height="24" viewBox="0 0 24 24" fill="none" xmlns="http://www.w3.org/2000/svg">
<mask id="mask0_56_688" style="mask-type:alpha" maskUnits="userSpaceOnUse" x="0" y="0" width="24" height="24">
<rect width="24" height="24" fill="#D9D9D9"/>
</mask>
<g mask="url(#mask0_56_688)">
<path d="M1 18V6C1 5.71667 1.09583 5.47917 1.2875 5.2875C1.47917 5.09583 1.71667 5 2 5C2.28333 5 2.52083 5.09583 2.7125 5.2875C2.90417 5.47917 3 5.71667 3 6V18C3 18.2833 2.90417 18.5208 2.7125 18.7125C2.52083 18.9042 2.28333 19 2 19C1.71667 19 1.47917 18.9042 1.2875 18.7125C1.09583 18.5208 1 18.2833 1 18ZM5 18V6C5 5.71667 5.09583 5.47917 5.2875 5.2875C5.47917 5.09583 5.71667 5 6 5C6.28333 5 6.52083 5.09583 6.7125 5.2875C6.90417 5.47917 7 5.71667 7 6V18C7 18.2833 6.90417 18.5208 6.7125 18.7125C6.52083 18.9042 6.28333 19 6 19C5.71667 19 5.47917 18.9042 5.2875 18.7125C5.09583 18.5208 5 18.2833 5 18ZM11 19C10.45 19 9.97917 18.8042 9.5875 18.4125C9.19583 18.0208 9 17.55 9 17V7C9 6.45 9.19583 5.97917 9.5875 5.5875C9.97917 5.19583 10.45 5 11 5H21C21.55 5 22.0208 5.19583 22.4125 5.5875C22.8042 5.97917 23 6.45 23 7V17C23 17.55 22.8042 18.0208 22.4125 18.4125C22.0208 18.8042 21.55 19 21 19H11ZM11 17H21V7H11V17ZM15.5 14L14.5 12.675C14.4 12.5417 14.2667 12.4792 14.1 12.4875C13.9333 12.4958 13.8 12.5667 13.7 12.7L12.575 14.2C12.4417 14.3667 12.4292 14.5417 12.5375 14.725C12.6458 14.9083 12.8 15 13 15H19C19.2 15 19.35 14.9083 19.45 14.725C19.55 14.5417 19.5333 14.3667 19.4 14.2L17.8 12.025C17.7 11.8917 17.5667 11.825 17.4 11.825C17.2333 11.825 17.1 11.8917 17 12.025L15.5 14Z" fill="#292929"/>
</g>
</svg>
