<svg width="25" height="25" viewBox="0 0 25 25" fill="none" xmlns="http://www.w3.org/2000/svg">
<mask id="mask0_233_615" style="mask-type:alpha" maskUnits="userSpaceOnUse" x="0" y="0" width="25" height="25">
<rect x="0.869141" y="0.989258" width="24" height="24" fill="#D9D9D9"/>
</mask>
<g mask="url(#mask0_233_615)">
<path d="M20.8191 21.9893C18.7358 21.9893 16.6775 21.5351 14.6441 20.6268C12.6108 19.7184 10.7608 18.4309 9.09414 16.7643C7.42747 15.0976 6.13997 13.2476 5.23164 11.2143C4.32331 9.18092 3.86914 7.12259 3.86914 5.03926C3.86914 4.73926 3.96914 4.48926 4.16914 4.28926C4.36914 4.08926 4.61914 3.98926 4.91914 3.98926H8.96914C9.20247 3.98926 9.41081 4.06842 9.59414 4.22676C9.77747 4.38509 9.88581 4.57259 9.91914 4.78926L10.5691 8.28926C10.6025 8.55592 10.5941 8.78092 10.5441 8.96426C10.4941 9.14759 10.4025 9.30592 10.2691 9.43926L7.84414 11.8893C8.17747 12.5059 8.57331 13.1018 9.03164 13.6768C9.48997 14.2518 9.99414 14.8059 10.5441 15.3393C11.0608 15.8559 11.6025 16.3351 12.1691 16.7768C12.7358 17.2184 13.3358 17.6226 13.9691 17.9893L16.3191 15.6393C16.4691 15.4893 16.665 15.3768 16.9066 15.3018C17.1483 15.2268 17.3858 15.2059 17.6191 15.2393L21.0691 15.9393C21.3025 16.0059 21.4941 16.1268 21.6441 16.3018C21.7941 16.4768 21.8691 16.6726 21.8691 16.8893V20.9393C21.8691 21.2393 21.7691 21.4893 21.5691 21.6893C21.3691 21.8893 21.1191 21.9893 20.8191 21.9893ZM6.89414 9.98926L8.54414 8.33926L8.11914 5.98926H5.89414C5.97747 6.67259 6.09414 7.34759 6.24414 8.01426C6.39414 8.68092 6.61081 9.33926 6.89414 9.98926ZM15.8441 18.9393C16.4941 19.2226 17.1566 19.4476 17.8316 19.6143C18.5066 19.7809 19.1858 19.8893 19.8691 19.9393V17.7393L17.5191 17.2643L15.8441 18.9393Z" fill="white"/>
</g>
</svg>
