<svg width="24" height="25" viewBox="0 0 24 25" fill="none" xmlns="http://www.w3.org/2000/svg">
<mask id="mask0_275_620" style="mask-type:alpha" maskUnits="userSpaceOnUse" x="0" y="0" width="24" height="25">
<rect y="0.948975" width="24" height="24" fill="#D9D9D9"/>
</mask>
<g mask="url(#mask0_275_620)">
<path d="M12.0008 14.349L7.10078 19.249C6.91745 19.4324 6.68411 19.524 6.40078 19.524C6.11745 19.524 5.88411 19.4324 5.70078 19.249C5.51745 19.0657 5.42578 18.8324 5.42578 18.549C5.42578 18.2657 5.51745 18.0324 5.70078 17.849L10.6008 12.949L5.70078 8.04902C5.51745 7.86569 5.42578 7.63236 5.42578 7.34902C5.42578 7.06569 5.51745 6.83236 5.70078 6.64902C5.88411 6.46569 6.11745 6.37402 6.40078 6.37402C6.68411 6.37402 6.91745 6.46569 7.10078 6.64902L12.0008 11.549L16.9008 6.64902C17.0841 6.46569 17.3174 6.37402 17.6008 6.37402C17.8841 6.37402 18.1174 6.46569 18.3008 6.64902C18.4841 6.83236 18.5758 7.06569 18.5758 7.34902C18.5758 7.63236 18.4841 7.86569 18.3008 8.04902L13.4008 12.949L18.3008 17.849C18.4841 18.0324 18.5758 18.2657 18.5758 18.549C18.5758 18.8324 18.4841 19.0657 18.3008 19.249C18.1174 19.4324 17.8841 19.524 17.6008 19.524C17.3174 19.524 17.0841 19.4324 16.9008 19.249L12.0008 14.349Z" fill="white"/>
</g>
</svg>
