<svg width="42" height="42" viewBox="0 0 42 42" fill="none" xmlns="http://www.w3.org/2000/svg">
<mask id="mask0_63_751" style="mask-type:alpha" maskUnits="userSpaceOnUse" x="0" y="0" width="42" height="42">
<rect width="42" height="42" fill="#D9D9D9"/>
</mask>
<g mask="url(#mask0_63_751)">
<path d="M31.325 35.1313C31.0917 35.1313 30.8729 35.0948 30.6688 35.0219C30.4646 34.949 30.275 34.825 30.1 34.65L25.2 29.75C24.8208 29.3708 24.551 28.9625 24.3906 28.525C24.2302 28.0875 24.15 27.65 24.15 27.2125C24.15 26.2792 24.4854 25.4479 25.1562 24.7188C25.8271 23.9896 26.6875 23.625 27.7375 23.625C28.5542 23.625 29.1958 23.8146 29.6625 24.1937C30.1292 24.5729 30.6833 25.0833 31.325 25.725C31.9083 25.1417 32.4406 24.6458 32.9219 24.2375C33.4031 23.8292 34.0667 23.625 34.9125 23.625C35.9917 23.625 36.8594 23.9969 37.5156 24.7406C38.1719 25.4844 38.5 26.3229 38.5 27.2562C38.5 27.6937 38.4125 28.1312 38.2375 28.5687C38.0625 29.0062 37.8 29.4 37.45 29.75L32.55 34.65C32.375 34.825 32.1854 34.949 31.9812 35.0219C31.7771 35.0948 31.5583 35.1313 31.325 35.1313ZM7 35C6.0375 35 5.21354 34.6573 4.52813 33.9719C3.84271 33.2865 3.5 32.4625 3.5 31.5V10.5C3.5 9.5375 3.84271 8.71354 4.52813 8.02813C5.21354 7.34271 6.0375 7 7 7H35C35.9625 7 36.7865 7.34271 37.4719 8.02813C38.1573 8.71354 38.5 9.5375 38.5 10.5V19.8188C37.975 19.4396 37.4208 19.1042 36.8375 18.8125C36.2542 18.5208 35.6417 18.2729 35 18.0688V14H7V21H22.75C21.6125 22.1083 20.7156 23.4135 20.0594 24.9156C19.4031 26.4177 19.075 28.0292 19.075 29.75C19.075 30.6833 19.1771 31.5948 19.3812 32.4844C19.5854 33.374 19.8771 34.2125 20.2562 35H7Z" fill="#1C1B1F"/>
</g>
</svg>
