<svg width="42" height="42" viewBox="0 0 42 42" fill="none" xmlns="http://www.w3.org/2000/svg">
<mask id="mask0_63_745" style="mask-type:alpha" maskUnits="userSpaceOnUse" x="0" y="0" width="42" height="42">
<rect width="42" height="42" fill="#D9D9D9"/>
</mask>
<g mask="url(#mask0_63_745)">
<path d="M21.7 38.5L25.5062 35C28.6271 32.0833 30.6979 29.8594 31.7188 28.3281C32.7396 26.7969 33.25 25.1562 33.25 23.4062C33.25 22.6479 33.1479 21.9333 32.9438 21.2625C32.7396 20.5917 32.4333 19.9208 32.025 19.25H35C35.9625 19.25 36.7865 19.5927 37.4719 20.2781C38.1573 20.9635 38.5 21.7875 38.5 22.75V36.75C38.5 37.2458 38.3323 37.6615 37.9969 37.9969C37.6615 38.3323 37.2458 38.5 36.75 38.5H21.7ZM3.5 36.75V22.75C3.5 21.7875 3.83542 20.9635 4.50625 20.2781C5.17708 19.5927 6.00833 19.25 7 19.25H9.93125C9.55208 19.8625 9.26042 20.526 9.05625 21.2406C8.85208 21.9552 8.75 22.6771 8.75 23.4062C8.75 25.1562 9.23854 26.7969 10.2156 28.3281C11.1927 29.8594 13.2708 32.0833 16.45 35L20.3 38.5H5.25C4.75417 38.5 4.33854 38.3323 4.00312 37.9969C3.66771 37.6615 3.5 37.2458 3.5 36.75ZM33.25 17.5C31.7625 17.5 30.5156 16.9969 29.5094 15.9906C28.5031 14.9844 28 13.7375 28 12.25C28 10.7917 28.5031 9.55208 29.5094 8.53125C30.5156 7.51042 31.7625 7 33.25 7C34.7083 7 35.9479 7.51042 36.9688 8.53125C37.9896 9.55208 38.5 10.7917 38.5 12.25C38.5 13.7375 37.9896 14.9844 36.9688 15.9906C35.9479 16.9969 34.7083 17.5 33.25 17.5ZM21 15.75C19.2792 15.75 17.8281 15.1594 16.6469 13.9781C15.4656 12.7969 14.875 11.3458 14.875 9.625C14.875 7.93333 15.4656 6.48958 16.6469 5.29375C17.8281 4.09792 19.2792 3.5 21 3.5C22.6917 3.5 24.1354 4.09792 25.3313 5.29375C26.5271 6.48958 27.125 7.93333 27.125 9.625C27.125 11.3458 26.5271 12.7969 25.3313 13.9781C24.1354 15.1594 22.6917 15.75 21 15.75ZM12.25 23.4062C12.25 24.6021 12.8333 25.9438 14 27.4313C15.1667 28.9188 17.4854 31.2375 20.9563 34.3875C24.3979 31.2958 26.724 28.999 27.9344 27.4969C29.1448 25.9948 29.75 24.6312 29.75 23.4062C29.75 22.2396 29.3562 21.2552 28.5687 20.4531C27.7812 19.651 26.8333 19.25 25.725 19.25C25.0542 19.25 24.4271 19.4104 23.8438 19.7313C23.2604 20.0521 22.75 20.4458 22.3125 20.9125L20.9563 22.3125L19.6438 20.9563C19.2354 20.5188 18.7688 20.125 18.2438 19.775C17.7188 19.425 17.0625 19.25 16.275 19.25C15.0792 19.25 14.1094 19.651 13.3656 20.4531C12.6219 21.2552 12.25 22.2396 12.25 23.4062ZM8.75 17.5C7.2625 17.5 6.01562 16.9969 5.00938 15.9906C4.00313 14.9844 3.5 13.7375 3.5 12.25C3.5 10.7917 4.00313 9.55208 5.00938 8.53125C6.01562 7.51042 7.2625 7 8.75 7C10.2083 7 11.4479 7.51042 12.4688 8.53125C13.4896 9.55208 14 10.7917 14 12.25C14 13.7375 13.4896 14.9844 12.4688 15.9906C11.4479 16.9969 10.2083 17.5 8.75 17.5Z" fill="#1C1B1F"/>
</g>
</svg>
