<svg width="25" height="25" viewBox="0 0 25 25" fill="none" xmlns="http://www.w3.org/2000/svg">
<mask id="mask0_53_617" style="mask-type:alpha" maskUnits="userSpaceOnUse" x="0" y="0" width="25" height="25">
<rect x="0.869141" y="0.250244" width="24" height="24" fill="#D9D9D9"/>
</mask>
<g mask="url(#mask0_53_617)">
<path d="M6.86914 19.2502H9.86914V14.2502C9.86914 13.9669 9.96497 13.7294 10.1566 13.5377C10.3483 13.3461 10.5858 13.2502 10.8691 13.2502H14.8691C15.1525 13.2502 15.39 13.3461 15.5816 13.5377C15.7733 13.7294 15.8691 13.9669 15.8691 14.2502V19.2502H18.8691V10.2502L12.8691 5.75024L6.86914 10.2502V19.2502ZM4.86914 19.2502V10.2502C4.86914 9.93358 4.93997 9.63358 5.08164 9.35024C5.22331 9.06691 5.41914 8.83358 5.66914 8.65024L11.6691 4.15024C12.0191 3.88358 12.4191 3.75024 12.8691 3.75024C13.3191 3.75024 13.7191 3.88358 14.0691 4.15024L20.0691 8.65024C20.3191 8.83358 20.515 9.06691 20.6566 9.35024C20.7983 9.63358 20.8691 9.93358 20.8691 10.2502V19.2502C20.8691 19.8002 20.6733 20.2711 20.2816 20.6627C19.89 21.0544 19.4191 21.2502 18.8691 21.2502H14.8691C14.5858 21.2502 14.3483 21.1544 14.1566 20.9627C13.965 20.7711 13.8691 20.5336 13.8691 20.2502V15.2502H11.8691V20.2502C11.8691 20.5336 11.7733 20.7711 11.5816 20.9627C11.39 21.1544 11.1525 21.2502 10.8691 21.2502H6.86914C6.31914 21.2502 5.84831 21.0544 5.45664 20.6627C5.06497 20.2711 4.86914 19.8002 4.86914 19.2502Z" fill="#1C1B1F"/>
</g>
</svg>
