<svg width="32" height="32" viewBox="0 0 32 32" fill="none" xmlns="http://www.w3.org/2000/svg">
<g clip-path="url(#clip0_70_754)">
<path d="M10.6685 16C10.6685 13.0546 13.0556 10.6662 16.001 10.6662C18.9464 10.6662 21.3347 13.0546 21.3347 16C21.3347 18.9454 18.9464 21.3338 16.001 21.3338C13.0556 21.3338 10.6685 18.9454 10.6685 16ZM7.78517 16C7.78517 20.5376 11.4634 24.2158 16.001 24.2158C20.5386 24.2158 24.2168 20.5376 24.2168 16C24.2168 11.4624 20.5386 7.78419 16.001 7.78419C11.4634 7.78419 7.78517 11.4624 7.78517 16ZM22.622 7.45843C22.6219 7.83817 22.7343 8.20943 22.9452 8.52526C23.156 8.84108 23.4558 9.08729 23.8066 9.23275C24.1573 9.37822 24.5434 9.41639 24.9159 9.34246C25.2883 9.26852 25.6305 9.0858 25.8991 8.81739C26.1678 8.54898 26.3508 8.20694 26.425 7.83453C26.4992 7.46211 26.4614 7.07605 26.3162 6.72516C26.171 6.37426 25.925 6.0743 25.6094 5.8632C25.2937 5.65211 24.9225 5.53935 24.5428 5.5392H24.542C24.033 5.53944 23.5449 5.74169 23.1849 6.10155C22.8249 6.4614 22.6225 6.94942 22.622 7.45843ZM9.53698 29.0236C7.97704 28.9526 7.12917 28.6927 6.56571 28.4732C5.8187 28.1824 5.28571 27.836 4.72533 27.2764C4.16494 26.7168 3.81806 26.1843 3.52853 25.4373C3.30888 24.8741 3.04904 24.026 2.97813 22.466C2.90056 20.7795 2.88507 20.2729 2.88507 16.0001C2.88507 11.7274 2.90184 11.2221 2.97813 9.53421C3.04917 7.97427 3.31093 7.12781 3.52853 6.56294C3.81934 5.81594 4.16571 5.28294 4.72533 4.72256C5.28494 4.16218 5.81742 3.8153 6.56571 3.52576C7.12891 3.30611 7.97704 3.04627 9.53698 2.97536C11.2235 2.89779 11.7301 2.8823 16.001 2.8823C20.2718 2.8823 20.779 2.89907 22.4669 2.97536C24.0268 3.0464 24.8733 3.30816 25.4382 3.52576C26.1852 3.8153 26.7182 4.16294 27.2785 4.72256C27.8389 5.28218 28.1845 5.81594 28.4753 6.56294C28.695 7.12614 28.9548 7.97427 29.0257 9.53421C29.1033 11.2221 29.1188 11.7274 29.1188 16.0001C29.1188 20.2729 29.1033 20.7781 29.0257 22.466C28.9547 24.026 28.6936 24.8739 28.4753 25.4373C28.1845 26.1843 27.8382 26.7173 27.2785 27.2764C26.7189 27.8355 26.1852 28.1824 25.4382 28.4732C24.875 28.6929 24.0268 28.9527 22.4669 29.0236C20.7804 29.1012 20.2737 29.1167 16.001 29.1167C11.7282 29.1167 11.223 29.1012 9.53698 29.0236ZM9.4045 0.096896C7.7012 0.174464 6.5373 0.444544 5.52085 0.840064C4.46818 1.24851 3.57704 1.79648 2.68654 2.68557C1.79605 3.57466 1.24949 4.4672 0.841041 5.51987C0.445521 6.53696 0.175441 7.70022 0.0978726 9.40352C0.0190246 11.1095 0.000976562 11.6549 0.000976562 16C0.000976562 20.3451 0.0190246 20.8905 0.0978726 22.5965C0.175441 24.2999 0.445521 25.463 0.841041 26.4801C1.24949 27.5322 1.79618 28.4257 2.68654 29.3144C3.57691 30.2031 4.46818 30.7503 5.52085 31.1599C6.53922 31.5555 7.7012 31.8255 9.4045 31.9031C11.1114 31.9807 11.6559 32 16.001 32C20.3461 32 20.8915 31.982 22.5975 31.9031C24.3009 31.8255 25.464 31.5555 26.4811 31.1599C27.5331 30.7503 28.4249 30.2035 29.3154 29.3144C30.2059 28.4253 30.7513 27.5322 31.1609 26.4801C31.5564 25.463 31.8278 24.2998 31.9041 22.5965C31.9816 20.8892 31.9997 20.3451 31.9997 16C31.9997 11.6549 31.9816 11.1095 31.9041 9.40352C31.8265 7.7001 31.5564 6.53632 31.1609 5.51987C30.7513 4.46784 30.2045 3.57606 29.3154 2.68557C28.4263 1.79507 27.5331 1.24851 26.4824 0.840064C25.464 0.444544 24.3008 0.173184 22.5987 0.096896C20.8928 0.019328 20.3473 0 16.0023 0C11.6572 0 11.1114 0.018048 9.4045 0.096896Z" fill="url(#paint0_radial_70_754)"/>
<path d="M10.6685 16C10.6685 13.0546 13.0556 10.6662 16.001 10.6662C18.9464 10.6662 21.3347 13.0546 21.3347 16C21.3347 18.9454 18.9464 21.3338 16.001 21.3338C13.0556 21.3338 10.6685 18.9454 10.6685 16ZM7.78517 16C7.78517 20.5376 11.4634 24.2158 16.001 24.2158C20.5386 24.2158 24.2168 20.5376 24.2168 16C24.2168 11.4624 20.5386 7.78419 16.001 7.78419C11.4634 7.78419 7.78517 11.4624 7.78517 16ZM22.622 7.45843C22.6219 7.83817 22.7343 8.20943 22.9452 8.52526C23.156 8.84108 23.4558 9.08729 23.8066 9.23275C24.1573 9.37822 24.5434 9.41639 24.9159 9.34246C25.2883 9.26852 25.6305 9.0858 25.8991 8.81739C26.1678 8.54898 26.3508 8.20694 26.425 7.83453C26.4992 7.46211 26.4614 7.07605 26.3162 6.72516C26.171 6.37426 25.925 6.0743 25.6094 5.8632C25.2937 5.65211 24.9225 5.53935 24.5428 5.5392H24.542C24.033 5.53944 23.5449 5.74169 23.1849 6.10155C22.8249 6.4614 22.6225 6.94942 22.622 7.45843ZM9.53698 29.0236C7.97704 28.9526 7.12917 28.6927 6.56571 28.4732C5.8187 28.1824 5.28571 27.836 4.72533 27.2764C4.16494 26.7168 3.81806 26.1843 3.52853 25.4373C3.30888 24.8741 3.04904 24.026 2.97813 22.466C2.90056 20.7795 2.88507 20.2729 2.88507 16.0001C2.88507 11.7274 2.90184 11.2221 2.97813 9.53421C3.04917 7.97427 3.31093 7.12781 3.52853 6.56294C3.81934 5.81594 4.16571 5.28294 4.72533 4.72256C5.28494 4.16218 5.81742 3.8153 6.56571 3.52576C7.12891 3.30611 7.97704 3.04627 9.53698 2.97536C11.2235 2.89779 11.7301 2.8823 16.001 2.8823C20.2718 2.8823 20.779 2.89907 22.4669 2.97536C24.0268 3.0464 24.8733 3.30816 25.4382 3.52576C26.1852 3.8153 26.7182 4.16294 27.2785 4.72256C27.8389 5.28218 28.1845 5.81594 28.4753 6.56294C28.695 7.12614 28.9548 7.97427 29.0257 9.53421C29.1033 11.2221 29.1188 11.7274 29.1188 16.0001C29.1188 20.2729 29.1033 20.7781 29.0257 22.466C28.9547 24.026 28.6936 24.8739 28.4753 25.4373C28.1845 26.1843 27.8382 26.7173 27.2785 27.2764C26.7189 27.8355 26.1852 28.1824 25.4382 28.4732C24.875 28.6929 24.0268 28.9527 22.4669 29.0236C20.7804 29.1012 20.2737 29.1167 16.001 29.1167C11.7282 29.1167 11.223 29.1012 9.53698 29.0236ZM9.4045 0.096896C7.7012 0.174464 6.5373 0.444544 5.52085 0.840064C4.46818 1.24851 3.57704 1.79648 2.68654 2.68557C1.79605 3.57466 1.24949 4.4672 0.841041 5.51987C0.445521 6.53696 0.175441 7.70022 0.0978726 9.40352C0.0190246 11.1095 0.000976562 11.6549 0.000976562 16C0.000976562 20.3451 0.0190246 20.8905 0.0978726 22.5965C0.175441 24.2999 0.445521 25.463 0.841041 26.4801C1.24949 27.5322 1.79618 28.4257 2.68654 29.3144C3.57691 30.2031 4.46818 30.7503 5.52085 31.1599C6.53922 31.5555 7.7012 31.8255 9.4045 31.9031C11.1114 31.9807 11.6559 32 16.001 32C20.3461 32 20.8915 31.982 22.5975 31.9031C24.3009 31.8255 25.464 31.5555 26.4811 31.1599C27.5331 30.7503 28.4249 30.2035 29.3154 29.3144C30.2059 28.4253 30.7513 27.5322 31.1609 26.4801C31.5564 25.463 31.8278 24.2998 31.9041 22.5965C31.9816 20.8892 31.9997 20.3451 31.9997 16C31.9997 11.6549 31.9816 11.1095 31.9041 9.40352C31.8265 7.7001 31.5564 6.53632 31.1609 5.51987C30.7513 4.46784 30.2045 3.57606 29.3154 2.68557C28.4263 1.79507 27.5331 1.24851 26.4824 0.840064C25.464 0.444544 24.3008 0.173184 22.5987 0.096896C20.8928 0.019328 20.3473 0 16.0023 0C11.6572 0 11.1114 0.018048 9.4045 0.096896Z" fill="url(#paint1_radial_70_754)"/>
</g>
<defs>
<radialGradient id="paint0_radial_70_754" cx="0" cy="0" r="1" gradientUnits="userSpaceOnUse" gradientTransform="translate(4.25237 32.1512) scale(41.7733 41.7733)">
<stop offset="0.09" stop-color="#FA8F21"/>
<stop offset="0.78" stop-color="#D82D7E"/>
</radialGradient>
<radialGradient id="paint1_radial_70_754" cx="0" cy="0" r="1" gradientUnits="userSpaceOnUse" gradientTransform="translate(19.4076 33.5848) scale(32.9231)">
<stop offset="0.64" stop-color="#8C3AAA" stop-opacity="0"/>
<stop offset="1" stop-color="#8C3AAA"/>
</radialGradient>
<clipPath id="clip0_70_754">
<rect width="32" height="32" fill="white"/>
</clipPath>
</defs>
</svg>
