<svg width="25" height="25" viewBox="0 0 25 25" fill="none" xmlns="http://www.w3.org/2000/svg">
<mask id="mask0_273_611" style="mask-type:alpha" maskUnits="userSpaceOnUse" x="0" y="0" width="25" height="25">
<rect x="0.160156" y="0.948975" width="24" height="24" fill="#D9D9D9"/>
</mask>
<g mask="url(#mask0_273_611)">
<path d="M4.16016 18.949C3.87682 18.949 3.63932 18.8531 3.44766 18.6615C3.25599 18.4698 3.16016 18.2323 3.16016 17.949C3.16016 17.6656 3.25599 17.4281 3.44766 17.2365C3.63932 17.0448 3.87682 16.949 4.16016 16.949H20.1602C20.4435 16.949 20.681 17.0448 20.8727 17.2365C21.0643 17.4281 21.1602 17.6656 21.1602 17.949C21.1602 18.2323 21.0643 18.4698 20.8727 18.6615C20.681 18.8531 20.4435 18.949 20.1602 18.949H4.16016ZM4.16016 13.949C3.87682 13.949 3.63932 13.8531 3.44766 13.6615C3.25599 13.4698 3.16016 13.2323 3.16016 12.949C3.16016 12.6656 3.25599 12.4281 3.44766 12.2365C3.63932 12.0448 3.87682 11.949 4.16016 11.949H20.1602C20.4435 11.949 20.681 12.0448 20.8727 12.2365C21.0643 12.4281 21.1602 12.6656 21.1602 12.949C21.1602 13.2323 21.0643 13.4698 20.8727 13.6615C20.681 13.8531 20.4435 13.949 20.1602 13.949H4.16016ZM4.16016 8.94897C3.87682 8.94897 3.63932 8.85314 3.44766 8.66147C3.25599 8.46981 3.16016 8.23231 3.16016 7.94897C3.16016 7.66564 3.25599 7.42814 3.44766 7.23647C3.63932 7.04481 3.87682 6.94897 4.16016 6.94897H20.1602C20.4435 6.94897 20.681 7.04481 20.8727 7.23647C21.0643 7.42814 21.1602 7.66564 21.1602 7.94897C21.1602 8.23231 21.0643 8.46981 20.8727 8.66147C20.681 8.85314 20.4435 8.94897 20.1602 8.94897H4.16016Z" fill="white"/>
</g>
</svg>
