<svg width="25" height="24" viewBox="0 0 25 24" fill="none" xmlns="http://www.w3.org/2000/svg">
<mask id="mask0_275_621" style="mask-type:alpha" maskUnits="userSpaceOnUse" x="0" y="0" width="25" height="24">
<rect x="0.160156" width="24" height="24" fill="#D9D9D9"/>
</mask>
<g mask="url(#mask0_275_621)">
<path d="M4.16016 18C3.87682 18 3.63932 17.9042 3.44766 17.7125C3.25599 17.5208 3.16016 17.2833 3.16016 17C3.16016 16.7167 3.25599 16.4792 3.44766 16.2875C3.63932 16.0958 3.87682 16 4.16016 16H20.1602C20.4435 16 20.681 16.0958 20.8727 16.2875C21.0643 16.4792 21.1602 16.7167 21.1602 17C21.1602 17.2833 21.0643 17.5208 20.8727 17.7125C20.681 17.9042 20.4435 18 20.1602 18H4.16016ZM4.16016 13C3.87682 13 3.63932 12.9042 3.44766 12.7125C3.25599 12.5208 3.16016 12.2833 3.16016 12C3.16016 11.7167 3.25599 11.4792 3.44766 11.2875C3.63932 11.0958 3.87682 11 4.16016 11H20.1602C20.4435 11 20.681 11.0958 20.8727 11.2875C21.0643 11.4792 21.1602 11.7167 21.1602 12C21.1602 12.2833 21.0643 12.5208 20.8727 12.7125C20.681 12.9042 20.4435 13 20.1602 13H4.16016ZM4.16016 8C3.87682 8 3.63932 7.90417 3.44766 7.7125C3.25599 7.52083 3.16016 7.28333 3.16016 7C3.16016 6.71667 3.25599 6.47917 3.44766 6.2875C3.63932 6.09583 3.87682 6 4.16016 6H20.1602C20.4435 6 20.681 6.09583 20.8727 6.2875C21.0643 6.47917 21.1602 6.71667 21.1602 7C21.1602 7.28333 21.0643 7.52083 20.8727 7.7125C20.681 7.90417 20.4435 8 20.1602 8H4.16016Z" fill="#161616"/>
</g>
</svg>
