<svg width="42" height="42" viewBox="0 0 42 42" fill="none" xmlns="http://www.w3.org/2000/svg">
<mask id="mask0_63_710" style="mask-type:alpha" maskUnits="userSpaceOnUse" x="0" y="0" width="42" height="42">
<rect width="42" height="42" fill="#D9D9D9"/>
</mask>
<g mask="url(#mask0_63_710)">
<path d="M11.375 38.5C9.68333 38.5 8.23958 37.9021 7.04375 36.7063C5.84792 35.5104 5.25 34.0667 5.25 32.375V18.5062C4.4625 17.7479 3.68229 16.9823 2.90938 16.2094C2.13646 15.4365 1.75 14.4958 1.75 13.3875C1.75 12.6 2.03437 11.9219 2.60313 11.3531C3.17188 10.7844 3.85 10.5 4.6375 10.5C5.10417 10.5 5.53438 10.6021 5.92813 10.8063C6.32188 11.0104 6.67917 11.2729 7 11.5938C7.32083 11.2729 7.67812 11.0104 8.07187 10.8063C8.46562 10.6021 8.89583 10.5 9.3625 10.5C10.15 10.5 10.8281 10.7844 11.3969 11.3531C11.9656 11.9219 12.25 12.6 12.25 13.3875C12.25 14.4958 11.8635 15.4365 11.0906 16.2094C10.3177 16.9823 9.5375 17.7479 8.75 18.5062V32.375C8.75 33.1042 9.00521 33.724 9.51562 34.2344C10.026 34.7448 10.6458 35 11.375 35C12.1042 35 12.724 34.7448 13.2344 34.2344C13.7448 33.724 14 33.1042 14 32.375V12.25C14 9.82917 14.8531 7.76562 16.5594 6.05937C18.2656 4.35312 20.3292 3.5 22.75 3.5C25.1708 3.5 27.2344 4.35312 28.9406 6.05937C30.6469 7.76562 31.5 9.82917 31.5 12.25V12.425C33.5125 12.8333 35.1823 13.8323 36.5094 15.4219C37.8365 17.0115 38.5 18.8708 38.5 21V29.75C38.5 32.1708 37.6469 34.2344 35.9406 35.9406C34.2344 37.6469 32.1708 38.5 29.75 38.5C27.3292 38.5 25.2656 37.6469 23.5594 35.9406C21.8531 34.2344 21 32.1708 21 29.75V21C21 18.8708 21.6635 17.0115 22.9906 15.4219C24.3177 13.8323 25.9875 12.8333 28 12.425V12.25C28 10.7917 27.4896 9.55208 26.4688 8.53125C25.4479 7.51042 24.2083 7 22.75 7C21.2917 7 20.0521 7.51042 19.0312 8.53125C18.0104 9.55208 17.5 10.7917 17.5 12.25V32.375C17.5 34.0667 16.9021 35.5104 15.7062 36.7063C14.5104 37.9021 13.0667 38.5 11.375 38.5ZM29.75 26.25C28.7875 26.25 27.9635 26.5927 27.2781 27.2781C26.5927 27.9635 26.25 28.7875 26.25 29.75C26.25 30.7125 26.5927 31.5365 27.2781 32.2219C27.9635 32.9073 28.7875 33.25 29.75 33.25C30.7125 33.25 31.5365 32.9073 32.2219 32.2219C32.9073 31.5365 33.25 30.7125 33.25 29.75C33.25 28.7875 32.9073 27.9635 32.2219 27.2781C31.5365 26.5927 30.7125 26.25 29.75 26.25Z" fill="#1C1B1F"/>
</g>
</svg>
