<svg width="18" height="19" viewBox="0 0 18 19" fill="none" xmlns="http://www.w3.org/2000/svg">
<path d="M0 18.5L1.26525 13.8777C0.4845 12.5247 0.07425 10.991 0.075 9.41825C0.07725 4.50125 4.0785 0.5 8.99475 0.5C11.3805 0.50075 13.62 1.43 15.3045 3.116C16.9883 4.802 17.9153 7.043 17.9145 9.4265C17.9123 14.3443 13.911 18.3455 8.99475 18.3455C7.50225 18.3448 6.0315 17.9705 4.72875 17.2595L0 18.5ZM4.94775 15.6448C6.20475 16.391 7.40475 16.838 8.99175 16.8387C13.0778 16.8387 16.4063 13.5132 16.4085 9.425C16.41 5.3285 13.0973 2.0075 8.99775 2.006C4.90875 2.006 1.5825 5.3315 1.581 9.419C1.58025 11.0878 2.06925 12.3372 2.8905 13.6445L2.14125 16.3805L4.94775 15.6448ZM13.488 11.5468C13.4325 11.4538 13.284 11.3982 13.0605 11.2865C12.8378 11.1747 11.742 10.6355 11.5373 10.5612C11.3333 10.487 11.1848 10.4495 11.0355 10.673C10.887 10.8958 10.4595 11.3983 10.3298 11.5468C10.2 11.6953 10.0695 11.714 9.84675 11.6023C9.624 11.4905 8.9055 11.2558 8.05425 10.496C7.392 9.905 6.94425 9.17525 6.8145 8.95175C6.68475 8.729 6.801 8.60825 6.912 8.49725C7.0125 8.3975 7.13475 8.237 7.2465 8.1065C7.35975 7.9775 7.3965 7.8845 7.4715 7.73525C7.54575 7.58675 7.509 7.45625 7.45275 7.3445C7.3965 7.2335 6.951 6.13625 6.76575 5.69C6.58425 5.25575 6.4005 5.31425 6.264 5.3075L5.8365 5.3C5.688 5.3 5.4465 5.3555 5.2425 5.579C5.0385 5.8025 4.4625 6.341 4.4625 7.43825C4.4625 8.5355 5.26125 9.59525 5.37225 9.74375C5.484 9.89225 6.9435 12.1438 9.17925 13.109C9.711 13.3385 10.1265 13.4757 10.4498 13.5785C10.9838 13.748 11.4698 13.724 11.8538 13.667C12.282 13.6032 13.1723 13.1277 13.3583 12.6072C13.5443 12.086 13.5443 11.6398 13.488 11.5468Z" fill="#25D366"/>
</svg>
